<svg xmlns="http://www.w3.org/2000/svg" viewBox="0 0 24 24">
	<defs>
		<mask id="SVGKlMYocgN">
			<g fill="#fff">
				<path fill-opacity="0" stroke="#fff" stroke-dasharray="34" stroke-linecap="round" stroke-linejoin="round" stroke-width="2" d="M4 10h3.5l3.5 -3.5v10.5l-3.5 -3.5h-3.5Z">
					<animate fill="freeze" attributeName="stroke-dashoffset" dur="0.24s" values="34;0" />
					<animate fill="freeze" attributeName="fill-opacity" begin="0.34s" dur="0.2s" to="1" />
				</path>
				<path d="M14 12c0 0 0 0 0 0c0 0 0 0 0 0Z">
					<animate fill="freeze" attributeName="d" begin="0.2s" dur="0.14s" to="M14 16c1.5 -0.71 2.5 -2.24 2.5 -4c0 -1.77 -1 -3.26 -2.5 -4Z" />
				</path>
				<path d="M14 12c0 0 0 0 0 0c0 0 0 0 0 0v0c0 0 0 0 0 0c0 0 0 0 0 0Z">
					<animate fill="freeze" attributeName="d" begin="0.2s" dur="0.24s" to="M14 3.23c4 0.91 7 4.49 7 8.77c0 4.28 -3 7.86 -7 8.77v-2.07c2.89 -0.86 5 -3.53 5 -6.7c0 -3.17 -2.11 -5.85 -5 -6.71Z" />
				</path>
			</g>
			<path fill="none" stroke="#000" stroke-dasharray="28" stroke-dashoffset="28" stroke-linecap="round" stroke-linejoin="round" stroke-width="2" d="M-1 11h26" transform="rotate(45 12 12)">
				<animate fill="freeze" attributeName="stroke-dashoffset" begin="0.54s" dur="0.22s" to="0" />
			</path>
		</mask>
	</defs>
	<path fill="currentColor" d="M0 0h24v24H0z" mask="url(#SVGKlMYocgN)" />
	<path fill="none" stroke="currentColor" stroke-dasharray="28" stroke-dashoffset="28" stroke-linecap="round" stroke-linejoin="round" stroke-width="2" d="M-1 13h26" transform="rotate(45 12 12)">
		<animate fill="freeze" attributeName="stroke-dashoffset" begin="0.54s" dur="0.22s" to="0" />
	</path>
</svg>
